# Blender v2.78 (sub 0) OBJ File: 'room.blend'
# www.blender.org
mtllib room.mtl
o Cube
v 7.000000 -0.100000 -7.000000
v 7.000000 -0.100000 7.000000
v -7.000001 -0.100000 6.999999
v -6.999998 -0.100000 -7.000002
v 7.000003 0.100000 -6.999996
v 6.999995 0.100000 7.000004
v -7.000002 0.100000 6.999998
v -7.000000 0.100000 -7.000000
v 6.300000 -0.100000 -7.000000
v 6.300000 -0.100000 7.000000
v 6.300004 0.100000 -6.999997
v 6.299995 0.100000 7.000004
v -5.669998 -0.100000 -7.000002
v -5.670001 -0.100000 6.999999
v -5.669999 0.100000 -7.000000
v -5.670003 0.100000 6.999998
v 7.000000 -0.100000 -6.300000
v -6.999998 -0.100000 -6.300002
v 7.000003 0.100000 -6.299996
v -7.000000 0.100000 -6.300000
v 6.300003 0.100000 -6.299997
v 6.300000 -0.100000 -6.300000
v -5.670000 0.100000 -6.300000
v -5.669998 -0.100000 -6.300002
v 7.000000 -0.100000 6.335000
v 6.999996 0.100000 6.335004
v 6.299996 0.100000 6.335004
v -5.670003 0.100000 6.334999
v -7.000001 -0.100000 6.334999
v -7.000002 0.100000 6.334998
v 6.300000 -0.100000 6.335000
v -5.670001 -0.100000 6.334999
v -5.669999 6.100000 -7.000000
v -7.000000 6.100000 -7.000000
v -5.670003 6.100000 6.999998
v -7.000002 6.100000 6.999998
v -7.000000 6.100000 -6.300000
v -5.670003 6.100000 6.334999
v -7.000002 6.100000 6.334998
v -5.670000 6.100000 -6.300000
v 6.329998 0.100000 6.334999
v 6.329998 0.100000 6.999998
v 6.329998 6.100000 6.334999
v 6.329998 6.100000 6.999998
v 6.330002 0.100000 -6.999992
v 6.330001 0.100000 -6.299993
v 6.330001 6.100000 -6.299993
v 6.330002 6.100000 -6.999992
v -5.669999 7.100000 -7.000000
v -7.000000 7.100000 -7.000000
v -5.670003 7.100000 6.999998
v -7.000002 7.100000 6.999998
v -7.000000 7.100000 -6.300000
v -5.670003 7.100000 6.334999
v -7.000002 7.100000 6.334998
v -5.670000 7.100000 -6.300000
v 6.329998 6.100000 6.335002
v 6.329998 6.100000 7.000002
v 6.330002 6.100000 -6.999996
v 6.330001 6.100000 -6.299996
v 6.329998 7.100000 6.335002
v 6.330001 7.100000 -6.299996
v 6.329998 7.100000 7.000002
v 6.330002 7.100000 -6.999996
v 6.999996 7.100000 6.335004
v 6.999995 7.100000 7.000004
v 7.000003 7.100000 -6.999996
v 6.300004 7.100000 -6.999997
v 6.299995 7.100000 7.000004
v 6.299996 7.100000 6.335004
v 7.000003 7.100000 -6.299996
v 6.300003 7.100000 -6.299997
vn 0.0000 -1.0000 0.0000
vn 0.0000 1.0000 0.0000
vn 1.0000 0.0000 0.0000
vn 0.0000 0.0000 1.0000
vn -1.0000 -0.0000 0.0000
vn 0.0000 0.0000 -1.0000
usemtl Material
s off
f 32//1 14//1 3//1 29//1
f 38//2 35//2 44//2 43//2
f 25//3 26//3 6//3 2//3
f 14//4 16//4 7//4 3//4
f 18//5 20//5 8//5 4//5
f 15//6 13//6 4//6 8//6
f 5//6 1//6 9//6 11//6
f 2//4 6//4 12//4 10//4
f 26//3 19//3 71//3 65//3
f 25//1 2//1 10//1 31//1
f 11//6 9//6 13//6 15//6
f 10//4 12//4 16//4 14//4
f 27//2 28//2 16//2 12//2
f 31//1 10//1 14//1 32//1
f 9//1 22//1 24//1 13//1
f 11//2 15//2 23//2 21//2
f 1//1 17//1 22//1 9//1
f 5//6 11//6 68//6 67//6
f 29//5 30//5 20//5 18//5
f 1//3 5//3 19//3 17//3
f 7//4 16//4 35//4 36//4
f 13//1 24//1 18//1 4//1
f 3//5 7//5 30//5 29//5
f 22//1 31//1 32//1 24//1
f 21//2 23//2 28//2 27//2
f 17//1 25//1 31//1 22//1
f 27//5 12//5 69//5 70//5
f 17//3 19//3 26//3 25//3
f 23//1 15//1 45//1 46//1
f 24//1 32//1 29//1 18//1
f 35//1 38//1 57//1 58//1
f 40//1 33//1 59//1 60//1
f 38//1 40//1 60//1 57//1
f 8//5 20//5 37//5 34//5
f 20//5 30//5 39//5 37//5
f 15//6 8//6 34//6 33//6
f 30//5 7//5 36//5 39//5
f 28//3 23//3 40//3 38//3
f 42//3 41//3 43//3 44//3
f 28//6 38//6 43//6 41//6
f 16//1 28//1 41//1 42//1
f 35//4 16//4 42//4 44//4
f 46//3 45//3 48//3 47//3
f 33//2 40//2 47//2 48//2
f 40//4 23//4 46//4 47//4
f 15//6 33//6 48//6 45//6
f 54//2 55//2 52//2 51//2
f 49//2 50//2 53//2 56//2
f 56//2 53//2 55//2 54//2
f 36//4 35//4 51//4 52//4
f 39//5 36//5 52//5 55//5
f 37//5 39//5 55//5 53//5
f 34//5 37//5 53//5 50//5
f 33//6 34//6 50//6 49//6
f 58//3 57//3 61//3 63//3
f 60//3 59//3 64//3 62//3
f 57//3 60//3 62//3 61//3
f 51//4 35//4 58//4 63//4
f 56//2 54//2 61//2 62//2
f 49//2 56//2 62//2 64//2
f 54//2 51//2 63//2 61//2
f 33//6 49//6 64//6 59//6
f 65//2 70//2 69//2 66//2
f 67//2 68//2 72//2 71//2
f 71//2 72//2 70//2 65//2
f 11//5 21//5 72//5 68//5
f 19//3 5//3 67//3 71//3
f 6//3 26//3 65//3 66//3
f 12//4 6//4 66//4 69//4
f 21//5 27//5 70//5 72//5
